Genre:War
Language:English  http://www.imdb.com/title/tt1209319/
Source:1080p BluRay x264-LCHD


Format : Matroska
File size : 1.98 GiB
Duration : 1h 44mn
Overall bit rate : 2 704 Kbps


Video
Format settings, CABAC : Yes
Format settings, ReFrames : 4 frames
Codec ID : V_MPEG4/ISO/AVC
Duration : 1h 44mn
Bit rate : 2 266 Kbps
Nominal bit rate : 2 398 Kbps
Width : 1 280 pixels
Height : 570 pixels
Display aspect ratio : 2.25:1
Frame rate mode : Variable
Frame rate : 23.976 fps
Color space : YUV
Chroma subsampling : 4:2:0
Bit depth : 8 bits
Scan type : Progressive
Bits/(Pixel*Frame) : 0.130
Stream size : 1.66 GiB (84%)
Writing library : x264

Audio
ID : 2
Format : AC-3
Format/Info : Audio Coding 3
Mode extension : CM (complete main)
Codec ID : A_AC3
Duration : 1h 44mn
Bit rate mode : Constant
Bit rate : 384 Kbps
Channel(s) : 6 channels
Channel positions : Front: L C R, Side: L R, LFE
Sampling rate : 48.0 KHz
Bit depth : 16 bits
Video delay : -1mn 5s
Stream size : 288 MiB (14%)
Language : English


Plot:
The true story of Don Smith's heroic experience at the Battle of the Bulge while with the 94th Infantry
 
http://shareimage.org/images/kt5wttg68jgfmdu5fah3.png 
http://shareimage.org/images/5dktq7dul9ne7h1jnj5.png 
http://shareimage.org/images/auq6iv901ipn8jpri0jm.png 
http://shareimage.org/images/t5pix1fupk6ebudxv.png